<svg xmlns="http://www.w3.org/2000/svg" viewBox="0 0 32 32" width="32" height="32">
  <!-- Fundo circular azul -->
  <circle cx="16" cy="16" r="16" fill="#0078D4"/>
  
  <!-- Letra "Q" estilizada para "Questões" -->
  <path d="M8 12c0-4.4 3.6-8 8-8s8 3.6 8 8v4c0 3.8-2.6 7-6.1 7.8l2.6 2.6c0.4 0.4 0.4 1 0 1.4s-1 0.4-1.4 0L16 24.7l-3.1 3.1c-0.4 0.4-1 0.4-1.4 0s-0.4-1 0-1.4l2.6-2.6C10.6 23 8 19.8 8 16v-4z M16 6c-3.3 0-6 2.7-6 6v4c0 3.3 2.7 6 6 6s6-2.7 6-6v-4c0-3.3-2.7-6-6-6z" fill="white"/>
  
  <!-- Pequeno "300" no canto -->
  <text x="22" y="28" font-family="Arial, sans-serif" font-size="6" font-weight="bold" fill="white">300</text>
</svg>
