<svg xmlns="http://www.w3.org/2000/svg" viewBox="0 0 192 192" width="192" height="192">
  <!-- Fundo azul -->
  <rect width="192" height="192" fill="#0ea5e9" rx="24"/>
  
  <!-- Ícone de questão/documento -->
  <g transform="translate(32, 32)">
    <!-- Documento -->
    <rect x="20" y="20" width="88" height="112" fill="white" rx="8"/>
    <rect x="20" y="20" width="88" height="24" fill="#e0f2fe" rx="8 8 0 0"/>
    
    <!-- Linhas do texto -->
    <rect x="32" y="52" width="64" height="3" fill="#cbd5e1" rx="1.5"/>
    <rect x="32" y="62" width="48" height="3" fill="#cbd5e1" rx="1.5"/>
    <rect x="32" y="72" width="56" height="3" fill="#cbd5e1" rx="1.5"/>
    
    <!-- Alternativas (círculos) -->
    <circle cx="36" cy="88" r="4" fill="#0ea5e9"/>
    <rect x="48" y="84" width="32" height="3" fill="#cbd5e1" rx="1.5"/>
    
    <circle cx="36" cy="102" r="4" fill="#cbd5e1"/>
    <rect x="48" y="98" width="28" height="3" fill="#cbd5e1" rx="1.5"/>
    
    <circle cx="36" cy="116" r="4" fill="#cbd5e1"/>
    <rect x="48" y="112" width="36" height="3" fill="#cbd5e1" rx="1.5"/>
  </g>
  
  <!-- Texto DP-300 -->
  <text x="96" y="165" text-anchor="middle" fill="white" font-family="Arial, sans-serif" font-size="16" font-weight="bold">DP-300</text>
</svg>
